HIERARCHY
ROOT root
{
	OFFSET	0	13.1	24.9
	CHANNELS 6  Xposition Yposition Zposition Xrotation Yrotation Zrotation
	JOINT spine_1
	{
		OFFSET	0	9.99999	0
		CHANNELS 3  Xrotation Yrotation Zrotation
		JOINT spine_2
		{
			OFFSET	0	112	-10
			CHANNELS 3  Xrotation Yrotation Zrotation
			JOINT spine_3
			{
				OFFSET	0	206.5	19.3
				CHANNELS 3  Xrotation Yrotation Zrotation
				JOINT spine_4
				{
					OFFSET	0	110.4	14.6
					CHANNELS 3  Xrotation Yrotation Zrotation
					JOINT neck_1
					{
						OFFSET	0	71.8	-50.3
						CHANNELS 3  Xrotation Yrotation Zrotation
						JOINT neck_2
						{
							OFFSET	0	86.2	-25.8
							CHANNELS 3  Xrotation Yrotation Zrotation
							JOINT head_ee
							{
								OFFSET	0	179.8	-8.7
								CHANNELS 3  Xrotation Yrotation Zrotation
								End Site
								{
									OFFSET	1	0	0
								}
							}
						}
					}
					JOINT left_clavicle
					{
						OFFSET	-43.2	22.4	-70.8
						CHANNELS 3  Xrotation Yrotation Zrotation
						JOINT left_shoulder
						{
							OFFSET	-93.9	-5.79999	48.7
							CHANNELS 3  Xrotation Yrotation Zrotation
							JOINT left_elbow
							{
								OFFSET	-291.4	-30.8	15.2
								CHANNELS 3  Xrotation Yrotation Zrotation
								JOINT left_lowarm_twist
								{
									OFFSET	-110.7	-3.89999	13.6
									CHANNELS 3  Xrotation Yrotation Zrotation
									JOINT left_hand
									{
										OFFSET	-110.7	-3.89999	13.6
										CHANNELS 3  Xrotation Yrotation Zrotation
										JOINT left_ee
										{
											OFFSET	-80.8	-5.10001	12.1
											CHANNELS 3  Xrotation Yrotation Zrotation
											End Site
											{
												OFFSET	1	0	0
											}
										}
									}
								}
							}
						}
					}
					JOINT right_clavicle
					{
						OFFSET	43.2	22.4	-70.8
						CHANNELS 3  Xrotation Yrotation Zrotation
						JOINT right_shoulder
						{
							OFFSET	93.9	-5.79999	48.7
							CHANNELS 3  Xrotation Yrotation Zrotation
							JOINT right_elbow
							{
								OFFSET	291.4	-30.8	15.2
								CHANNELS 3  Xrotation Yrotation Zrotation
								JOINT right_lowarm_twist
								{
									OFFSET	110.7	-3.89999	13.6
									CHANNELS 3  Xrotation Yrotation Zrotation
									JOINT right_hand
									{
										OFFSET	110.7	-3.89999	13.6
										CHANNELS 3  Xrotation Yrotation Zrotation
										JOINT right_ee
										{
											OFFSET	80.8	-5.10001	12.1
											CHANNELS 3  Xrotation Yrotation Zrotation
											End Site
											{
												OFFSET	1	0	0
											}
										}
									}
								}
							}
						}
					}
				}
			}
		}
	}
	JOINT left_hip
	{
		OFFSET	-82.8	-127.5	0.300001
		CHANNELS 3  Xrotation Yrotation Zrotation
		JOINT left_knee
		{
			OFFSET	-28.2	-396.7	2.2
			CHANNELS 3  Xrotation Yrotation Zrotation
			JOINT left_ankle
			{
				OFFSET	-11.7	-411.3	35.4
				CHANNELS 3  Xrotation Yrotation Zrotation
				JOINT left_toes
				{
					OFFSET	0	-60	-88.6
					CHANNELS 3  Xrotation Yrotation Zrotation
					JOINT left_foot_ee
					{
						OFFSET	-22.5	-16.5	-42.2
						CHANNELS 3  Xrotation Yrotation Zrotation
						End Site
						{
							OFFSET	1	0	0
						}
					}
				}
			}
		}
	}
	JOINT right_hip
	{
		OFFSET	82.8	-127.5	0.300001
		CHANNELS 3  Xrotation Yrotation Zrotation
		JOINT right_knee
		{
			OFFSET	28.2	-396.7	2.2
			CHANNELS 3  Xrotation Yrotation Zrotation
			JOINT right_ankle
			{
				OFFSET	11.7	-411.3	35.4
				CHANNELS 3  Xrotation Yrotation Zrotation
				JOINT right_toes
				{
					OFFSET	0	-60	-88.6
					CHANNELS 3  Xrotation Yrotation Zrotation
					JOINT right_foot_ee
					{
						OFFSET	22.5	-16.5	-42.2
						CHANNELS 3  Xrotation Yrotation Zrotation
						End Site
						{
							OFFSET	1	0	0
						}
					}
				}
			}
		}
	}
}
MOTION
Frames: 10
Frame Time: 0.02
1160.66503741 743.091 -1780.34646246 -5.08629715692 25.9016238239 -2.47035340755 0.201794 0.595219 3.34141 0.207923 0.381514 3.37246 0.23342 -0.322205 3.37864 0.217557 0.215116 3.38713 11.3116 17.9687 0.183339 12.886 29.0279 -0.28652 -0.0 0.0 -0.0 -2.3525 19.7721 -1.16466 -17.1699 -21.8468 69.9579 0.647226 -17.7768 0.10122 -5.25505 -0.214533 0.636338 0.992062 -7.64841 3.45346 -0.0 0.0 -0.0 12.1254 15.6241 -24.4619 3.57586 22.6956 -67.1022 1.41952 35.1124 -0.449126 34.9366 0.112421 4.39313 -0.0166624 -8.87677 -3.57834 0.0 0.0 0.0 21.9402 17.6652 -4.72941 -52.0662 -1.40684 7.59567 -1.58707 14.9979 0.23462 -34.3849 0.0 0.0 -0.0 0.0 -0.0 17.9119 -13.1413 4.87221 -22.9786 -0.248386 -3.49392 15.04 19.5814 2.35611 10.3495 -0.0 -0.0 0.0 0.0 0.0 
1145.71451134 740.346 -1789.36797621 -6.02015977137 25.071482649 -2.14766841085 0.475275 0.691675 3.20863 0.48087 0.486211 3.24609 0.510944 -0.177603 3.27746 0.496119 0.341956 3.26442 10.3419 19.0265 -0.497997 12.2193 31.6783 -1.13086 -0.0 0.0 -0.0 -2.26571 21.0946 -0.80381 -18.5431 -23.9424 70.2511 0.577069 -15.9534 0.0808631 -6.50681 -0.274191 0.784863 1.47372 -6.08072 7.38356 -0.0 0.0 -0.0 11.8909 14.7944 -23.9556 4.75089 21.478 -66.9566 1.6092 38.5573 -0.562894 35.2783 0.126717 4.43441 0.527124 -4.03291 -5.17149 0.0 0.0 0.0 22.9574 18.1658 -3.81051 -52.5047 -1.44723 7.64981 1.72616 17.119 -0.254515 -36.1968 0.0 0.0 -0.0 0.0 -0.0 17.0997 -11.4264 5.09116 -21.1195 -0.280653 -3.21047 17.239 20.52 2.69446 9.41083 -0.0 -0.0 0.0 0.0 0.0 
1145.40676573 740.346 -1789.14602431 -6.02291879632 25.1273207716 -2.14116419145 0.475275 0.691675 3.20863 0.48087 0.486211 3.24609 0.510944 -0.177603 3.27746 0.496119 0.341956 3.26442 10.3419 19.0265 -0.497997 12.2193 31.6783 -1.13086 -0.0 0.0 -0.0 -2.26571 21.0946 -0.80381 -18.5431 -23.9424 70.2511 0.577069 -15.9534 0.0808631 -6.50681 -0.274191 0.784863 1.47372 -6.08072 7.38356 -0.0 0.0 -0.0 11.8909 14.7944 -23.9556 4.75089 21.478 -66.9566 1.6092 38.5573 -0.562894 35.2783 0.126717 4.43441 0.527124 -4.03291 -5.17149 0.0 0.0 0.0 22.9574 18.1658 -3.81051 -52.5047 -1.44723 7.64981 1.72616 17.119 -0.254515 -36.1968 0.0 0.0 -0.0 0.0 -0.0 17.0997 -11.4264 5.09116 -21.1195 -0.280653 -3.21047 17.239 20.52 2.69446 9.41083 -0.0 -0.0 0.0 0.0 0.0 
1124.21979697 737.351 -1796.34896432 -6.59165984397 27.4779986628 -1.2717175044 0.687837 0.580526 3.03387 0.692874 0.386389 3.06462 0.715408 -0.227938 3.08045 0.702263 0.261186 3.07781 10.1994 19.2658 -0.548014 12.1324 32.163 -1.19639 -0.0 0.0 -0.0 -2.32195 20.6847 -0.957634 -20.6281 -24.2085 70.6845 0.574329 -15.8815 0.0801117 -5.66605 -0.233762 0.685246 0.980928 -3.345 5.18855 -0.0 0.0 -0.0 11.894 15.8388 -23.9239 5.53613 21.2773 -66.1392 1.74213 40.7907 -0.647776 35.8544 0.151377 4.5038 1.21792 0.604955 -7.91695 0.0 0.0 0.0 26.1756 18.2028 -5.07099 -49.0014 -1.13632 7.20892 0.20571 21.1095 -0.0308441 -38.7248 0.0 0.0 -0.0 0.0 -0.0 15.237 -11.0831 5.16173 -19.9296 -0.29647 -3.02859 19.4519 22.5024 3.06266 10.3729 -0.0 -0.0 0.0 0.0 0.0 
1110.24357382 730.745 -1809.59670091 -5.64888993272 28.4296614205 -2.0337199102 0.634341 0.574913 3.07676 0.639528 0.378063 3.10707 0.662012 -0.247434 3.12018 0.648513 0.248199 3.12012 9.66382 20.0229 0.437696 11.5577 32.7003 0.0868691 -0.0 0.0 -0.0 -3.03684 20.9347 -1.94883 -20.4517 -24.4846 72.4655 0.58693 -16.2118 0.0835949 -4.05253 -0.160296 0.492477 0.952606 0.698696 6.65959 -0.0 0.0 -0.0 11.8855 16.4972 -23.8759 5.99903 20.8978 -64.65 1.79813 41.6889 -0.684691 37.8043 0.240013 4.73682 1.83733 4.79781 -10.4049 0.0 0.0 0.0 31.9789 22.12 -9.35717 -43.2774 -0.688328 6.45088 -1.44479 19.5983 0.216203 -40.1502 0.0 0.0 -0.0 0.0 -0.0 14.5168 -14.0831 7.32123 -21.9099 -0.268059 -3.33111 23.2947 23.1251 3.61042 9.37485 -0.0 -0.0 0.0 0.0 0.0 
1096.00267169 734.703 -1821.58445429 -6.20148932738 27.7176903761 -1.52453029777 0.996771 0.509198 3.07497 1.00198 0.312594 3.10111 1.02027 -0.291087 3.1032 1.00689 0.202415 3.11024 9.54752 18.9234 2.00188 10.9606 29.4825 2.18577 -0.0 0.0 -0.0 -2.93217 20.8051 -1.8223 -22.211 -24.9074 72.9805 0.522371 -14.5082 0.0664927 -2.30974 -0.0870871 0.282064 0.656397 6.23347 6.90565 -0.0 0.0 -0.0 12.3005 16.7854 -24.8146 5.85531 20.1023 -65.1234 1.82996 42.1886 -0.705966 37.9281 0.245904 4.7515 2.09866 9.29592 -10.2727 0.0 0.0 0.0 30.7322 19.0078 -7.80575 -28.0787 0.112847 4.26462 -1.19101 25.8138 0.18311 -38.4926 0.0 0.0 -0.0 0.0 -0.0 12.5434 -10.1149 6.67557 -20.5395 -0.288835 -3.12186 25.122 24.3246 3.8976 7.06772 -0.0 -0.0 0.0 0.0 0.0 
1081.35222029 733.497 -1832.80507518 -6.61496905989 29.0374910631 -1.21676780907 1.00707 0.56745 3.12321 1.01242 0.367663 3.15295 1.03411 -0.246208 3.16474 1.02023 0.256436 3.16393 8.44494 19.2963 2.14044 9.86564 30.3317 2.47903 -0.0 0.0 -0.0 -3.12507 22.2933 -1.80347 -21.9059 -24.9747 71.7971 0.494608 -13.7673 0.0597111 -1.1994 -0.0438011 0.146902 0.465737 11.4422 7.70145 -0.0 0.0 -0.0 12.4129 17.8139 -25.0216 6.5991 19.4917 -64.5905 1.86642 42.7513 -0.730581 35.8156 0.149694 4.49913 1.53793 8.67483 -6.71503 0.0 0.0 0.0 31.4799 20.1924 -7.2163 -18.053 0.313731 2.74118 -4.58075 28.4439 0.719824 -37.1575 0.0 0.0 -0.0 0.0 -0.0 10.8224 -6.17591 5.89586 -20.4484 -0.290038 -3.10793 26.7191 19.0906 3.90821 4.46261 -0.0 -0.0 0.0 0.0 0.0 
1061.72485863 732.386 -1846.18611057 -8.70818268685 30.6993549348 0.453908278759 1.60355 0.55153 3.18598 1.60913 0.347788 3.21457 1.62919 -0.244112 3.2241 1.61479 0.267865 3.22221 10.7285 19.0883 0.440904 12.4673 30.8101 0.0213749 -0.0 0.0 -0.0 -3.25232 20.436 -2.36359 -23.2707 -24.535 72.4461 0.488342 -13.5994 0.058229 -0.532579 -0.0190694 0.0653413 0.517772 13.3683 8.76952 -0.0 0.0 -0.0 12.5576 18.4638 -25.3188 6.78525 20.0522 -64.9094 1.75734 41.037 -0.657734 37.9695 0.247883 4.75641 2.18828 13.054 -9.21603 0.0 0.0 0.0 32.4172 24.657 -8.35718 -12.6619 0.310888 1.91434 -3.02539 22.6702 0.459663 -39.7079 0.0 0.0 -0.0 0.0 -0.0 10.6719 -8.86915 5.85422 -18.7609 -0.308326 -2.84966 26.4671 21.1515 3.94761 4.29493 -0.0 -0.0 0.0 0.0 0.0 
1057.52827422 732.386 -1842.63479634 -8.76768135987 31.3430697685 0.569358162917 1.60355 0.55153 3.18598 1.60913 0.347788 3.21457 1.62919 -0.244112 3.2241 1.61479 0.267865 3.22221 10.7285 19.0883 0.440904 12.4673 30.8101 0.0213749 -0.0 0.0 -0.0 -3.25232 20.436 -2.36359 -23.2707 -24.535 72.4461 0.488342 -13.5994 0.058229 -0.532579 -0.0190694 0.0653413 0.517772 13.3683 8.76952 -0.0 0.0 -0.0 12.5576 18.4638 -25.3188 6.78525 20.0522 -64.9094 1.75734 41.037 -0.657734 37.9695 0.247883 4.75641 2.18828 13.054 -9.21603 0.0 0.0 0.0 32.4172 24.657 -8.35718 -12.6619 0.310888 1.91434 -3.02539 22.6702 0.459663 -39.7079 0.0 0.0 -0.0 0.0 -0.0 10.6719 -8.86915 5.85422 -18.7609 -0.308326 -2.84966 26.4671 21.1515 3.94761 4.29493 -0.0 -0.0 0.0 0.0 0.0 
1052.08364263 732.386 -1837.90316575 -8.84870558213 32.1875314353 0.723263327655 1.60355 0.55153 3.18598 1.60913 0.347788 3.21457 1.62919 -0.244112 3.2241 1.61479 0.267865 3.22221 10.7285 19.0883 0.440904 12.4673 30.8101 0.0213749 -0.0 0.0 -0.0 -3.25232 20.436 -2.36359 -23.2707 -24.535 72.4461 0.488342 -13.5994 0.058229 -0.532579 -0.0190694 0.0653413 0.517772 13.3683 8.76952 -0.0 0.0 -0.0 12.5576 18.4638 -25.3188 6.78525 20.0522 -64.9094 1.75734 41.037 -0.657734 37.9695 0.247883 4.75641 2.18828 13.054 -9.21603 0.0 0.0 0.0 32.4172 24.657 -8.35718 -12.6619 0.310888 1.91434 -3.02539 22.6702 0.459663 -39.7079 0.0 0.0 -0.0 0.0 -0.0 10.6719 -8.86915 5.85422 -18.7609 -0.308326 -2.84966 26.4671 21.1515 3.94761 4.29493 -0.0 -0.0 0.0 0.0 0.0 
